# xmcd
#
# Track frame offsets:
# 150
# 15311
# 36553
# 52739
# 71418
# 86384
# 101603
# 118532
# 133337
# 149740
# 166222
# 181309
# 196617
# 209449
# 228088
# 242373
# 251973
#
# Disc length: 3541 seconds
#
#
# Revision: 0
# Processed by: cddbd v1.5.1PL0 Copyright (c) Steve Scherf et al.
# Submitted via: FreeRIP 2.93 
#
DISCID=e40dd311
DTITLE=Sandra e Denise - Saudades
DYEAR=2004
DGENRE=Country
TTITLE0=Saudade
TTITLE1=Estou aqui
TTITLE2=A gente se enrosca
TTITLE3=Eu só penso em te amar
TTITLE4=Chora no ponteiro viola
TTITLE5=Nos braços da saudade
TTITLE6=Felicidade e prazer
TTITLE7=Coração sabe mais
TTITLE8=Marcas de amor
TTITLE9=Jamais vou te esquecer
TTITLE10=Eu te preciso
TTITLE11=Diga pra ele
TTITLE12=Assim a gente se encontrou
TTITLE13=Seu jeitinho manhoso
TTITLE14=Não to nem aí
TTITLE15=Homem carente
TTITLE16=Fogo de amor
EXTD=
EXTT0=
EXTT1=
EXTT2=
EXTT3=
EXTT4=
EXTT5=
EXTT6=
EXTT7=
EXTT8=
EXTT9=
EXTT10=
EXTT11=
EXTT12=
EXTT13=
EXTT14=
EXTT15=
EXTT16=
PLAYORDER=
